%FSLAX45Y45*%
G04 Gerber Fmt 4.5, Leading zero omitted, Abs format (unit mm)*
G04 Created by KiCad (PCBNEW 5.0.0) date Thu Oct 11 21:07:27 2018*
%MOMM*%
%LPD*%
G01*
G04 APERTURE LIST*
%ADD10C,0.150000*%
%ADD11C,0.200000*%
%ADD12C,0.300000*%
G04 APERTURE END LIST*
D10*
X17907000Y-9398000D02*
X17907000Y-7874000D01*
X20701000Y-9398000D02*
X17907000Y-9398000D01*
X20701000Y-7874000D02*
X20701000Y-9398000D01*
X17907000Y-7874000D02*
X20701000Y-7874000D01*
D11*
X18839500Y-9251000D02*
X18879500Y-9291000D01*
X18879500Y-9251000D02*
X18839500Y-9291000D01*
X18903000Y-8679500D02*
X18943000Y-8719500D01*
X18943000Y-8679500D02*
X18903000Y-8719500D01*
X18966500Y-9251000D02*
X19006500Y-9291000D01*
X19006500Y-9251000D02*
X18966500Y-9291000D01*
X19030000Y-8806500D02*
X19070000Y-8846500D01*
X19070000Y-8806500D02*
X19030000Y-8846500D01*
X19093500Y-9187500D02*
X19133500Y-9227500D01*
X19133500Y-9187500D02*
X19093500Y-9227500D01*
X19284000Y-8616000D02*
X19324000Y-8656000D01*
X19324000Y-8616000D02*
X19284000Y-8656000D01*
X19347500Y-7981000D02*
X19387500Y-8021000D01*
X19387500Y-7981000D02*
X19347500Y-8021000D01*
X19411000Y-8298500D02*
X19451000Y-8338500D01*
X19451000Y-8298500D02*
X19411000Y-8338500D01*
X19411000Y-8425500D02*
X19451000Y-8465500D01*
X19451000Y-8425500D02*
X19411000Y-8465500D01*
X19474500Y-7981000D02*
X19514500Y-8021000D01*
X19514500Y-7981000D02*
X19474500Y-8021000D01*
X19474500Y-8743000D02*
X19514500Y-8783000D01*
X19514500Y-8743000D02*
X19474500Y-8783000D01*
X19538000Y-8298500D02*
X19578000Y-8338500D01*
X19578000Y-8298500D02*
X19538000Y-8338500D01*
X19538000Y-8425500D02*
X19578000Y-8465500D01*
X19578000Y-8425500D02*
X19538000Y-8465500D01*
X19665000Y-7981000D02*
X19705000Y-8021000D01*
X19705000Y-7981000D02*
X19665000Y-8021000D01*
X19728500Y-8616000D02*
X19768500Y-8656000D01*
X19768500Y-8616000D02*
X19728500Y-8656000D01*
X19792000Y-8044500D02*
X19832000Y-8084500D01*
X19832000Y-8044500D02*
X19792000Y-8084500D01*
X19982500Y-8997000D02*
X20022500Y-9037000D01*
X20022500Y-8997000D02*
X19982500Y-9037000D01*
X19982500Y-9124000D02*
X20022500Y-9164000D01*
X20022500Y-9124000D02*
X19982500Y-9164000D01*
X18655500Y-8064500D02*
G75*
G03X18655500Y-8064500I-50000J0D01*
G01*
X18909500Y-8064500D02*
G75*
G03X18909500Y-8064500I-50000J0D01*
G01*
X19163500Y-8064500D02*
G75*
G03X19163500Y-8064500I-50000J0D01*
G01*
X20243000Y-8128000D02*
G75*
G03X20243000Y-8128000I-50000J0D01*
G01*
X20243000Y-8382000D02*
G75*
G03X20243000Y-8382000I-50000J0D01*
G01*
X20243000Y-8636000D02*
G75*
G03X20243000Y-8636000I-50000J0D01*
G01*
X20243000Y-8890000D02*
G75*
G03X20243000Y-8890000I-50000J0D01*
G01*
X20243000Y-9144000D02*
G75*
G03X20243000Y-9144000I-50000J0D01*
G01*
X18338000Y-8128000D02*
G75*
G03X18338000Y-8128000I-50000J0D01*
G01*
X18338000Y-8382000D02*
G75*
G03X18338000Y-8382000I-50000J0D01*
G01*
X18338000Y-8636000D02*
G75*
G03X18338000Y-8636000I-50000J0D01*
G01*
X18338000Y-8890000D02*
G75*
G03X18338000Y-8890000I-50000J0D01*
G01*
X18338000Y-9144000D02*
G75*
G03X18338000Y-9144000I-50000J0D01*
G01*
X19367500Y-8957000D02*
X19367500Y-9077000D01*
X19307500Y-9017000D02*
X19427500Y-9017000D01*
X19717500Y-8957000D02*
X19717500Y-9077000D01*
X19657500Y-9017000D02*
X19777500Y-9017000D01*
D12*
X18185928Y-9871214D02*
X18185928Y-9571214D01*
X18257357Y-9571214D01*
X18300214Y-9585500D01*
X18328786Y-9614072D01*
X18343071Y-9642643D01*
X18357357Y-9699786D01*
X18357357Y-9742643D01*
X18343071Y-9799786D01*
X18328786Y-9828357D01*
X18300214Y-9856929D01*
X18257357Y-9871214D01*
X18185928Y-9871214D01*
X18485928Y-9871214D02*
X18485928Y-9671214D01*
X18485928Y-9728357D02*
X18500214Y-9699786D01*
X18514500Y-9685500D01*
X18543071Y-9671214D01*
X18571643Y-9671214D01*
X18671643Y-9871214D02*
X18671643Y-9671214D01*
X18671643Y-9571214D02*
X18657357Y-9585500D01*
X18671643Y-9599786D01*
X18685928Y-9585500D01*
X18671643Y-9571214D01*
X18671643Y-9599786D01*
X18857357Y-9871214D02*
X18828786Y-9856929D01*
X18814500Y-9828357D01*
X18814500Y-9571214D01*
X19014500Y-9871214D02*
X18985928Y-9856929D01*
X18971643Y-9828357D01*
X18971643Y-9571214D01*
X19357357Y-9871214D02*
X19357357Y-9571214D01*
X19457357Y-9785500D01*
X19557357Y-9571214D01*
X19557357Y-9871214D01*
X19828786Y-9871214D02*
X19828786Y-9714072D01*
X19814500Y-9685500D01*
X19785928Y-9671214D01*
X19728786Y-9671214D01*
X19700214Y-9685500D01*
X19828786Y-9856929D02*
X19800214Y-9871214D01*
X19728786Y-9871214D01*
X19700214Y-9856929D01*
X19685928Y-9828357D01*
X19685928Y-9799786D01*
X19700214Y-9771214D01*
X19728786Y-9756929D01*
X19800214Y-9756929D01*
X19828786Y-9742643D01*
X19971643Y-9671214D02*
X19971643Y-9971214D01*
X19971643Y-9685500D02*
X20000214Y-9671214D01*
X20057357Y-9671214D01*
X20085928Y-9685500D01*
X20100214Y-9699786D01*
X20114500Y-9728357D01*
X20114500Y-9814072D01*
X20100214Y-9842643D01*
X20085928Y-9856929D01*
X20057357Y-9871214D01*
X20000214Y-9871214D01*
X19971643Y-9856929D01*
X20243071Y-9842643D02*
X20257357Y-9856929D01*
X20243071Y-9871214D01*
X20228786Y-9856929D01*
X20243071Y-9842643D01*
X20243071Y-9871214D01*
X20243071Y-9685500D02*
X20257357Y-9699786D01*
X20243071Y-9714072D01*
X20228786Y-9699786D01*
X20243071Y-9685500D01*
X20243071Y-9714072D01*
X17859500Y-10345500D02*
X17899500Y-10385500D01*
X17899500Y-10345500D02*
X17859500Y-10385500D01*
X18243071Y-10201214D02*
X18271643Y-10201214D01*
X18300214Y-10215500D01*
X18314500Y-10229786D01*
X18328786Y-10258357D01*
X18343071Y-10315500D01*
X18343071Y-10386929D01*
X18328786Y-10444072D01*
X18314500Y-10472643D01*
X18300214Y-10486929D01*
X18271643Y-10501214D01*
X18243071Y-10501214D01*
X18214500Y-10486929D01*
X18200214Y-10472643D01*
X18185928Y-10444072D01*
X18171643Y-10386929D01*
X18171643Y-10315500D01*
X18185928Y-10258357D01*
X18200214Y-10229786D01*
X18214500Y-10215500D01*
X18243071Y-10201214D01*
X18471643Y-10472643D02*
X18485928Y-10486929D01*
X18471643Y-10501214D01*
X18457357Y-10486929D01*
X18471643Y-10472643D01*
X18471643Y-10501214D01*
X18743071Y-10301214D02*
X18743071Y-10501214D01*
X18671643Y-10186929D02*
X18600214Y-10401214D01*
X18785928Y-10401214D01*
X18957357Y-10201214D02*
X18985928Y-10201214D01*
X19014500Y-10215500D01*
X19028786Y-10229786D01*
X19043071Y-10258357D01*
X19057357Y-10315500D01*
X19057357Y-10386929D01*
X19043071Y-10444072D01*
X19028786Y-10472643D01*
X19014500Y-10486929D01*
X18985928Y-10501214D01*
X18957357Y-10501214D01*
X18928786Y-10486929D01*
X18914500Y-10472643D01*
X18900214Y-10444072D01*
X18885928Y-10386929D01*
X18885928Y-10315500D01*
X18900214Y-10258357D01*
X18914500Y-10229786D01*
X18928786Y-10215500D01*
X18957357Y-10201214D01*
X19185928Y-10501214D02*
X19185928Y-10301214D01*
X19185928Y-10329786D02*
X19200214Y-10315500D01*
X19228786Y-10301214D01*
X19271643Y-10301214D01*
X19300214Y-10315500D01*
X19314500Y-10344072D01*
X19314500Y-10501214D01*
X19314500Y-10344072D02*
X19328786Y-10315500D01*
X19357357Y-10301214D01*
X19400214Y-10301214D01*
X19428786Y-10315500D01*
X19443071Y-10344072D01*
X19443071Y-10501214D01*
X19585928Y-10501214D02*
X19585928Y-10301214D01*
X19585928Y-10329786D02*
X19600214Y-10315500D01*
X19628786Y-10301214D01*
X19671643Y-10301214D01*
X19700214Y-10315500D01*
X19714500Y-10344072D01*
X19714500Y-10501214D01*
X19714500Y-10344072D02*
X19728786Y-10315500D01*
X19757357Y-10301214D01*
X19800214Y-10301214D01*
X19828786Y-10315500D01*
X19843071Y-10344072D01*
X19843071Y-10501214D01*
X20428786Y-10186929D02*
X20171643Y-10572643D01*
X20814500Y-10201214D02*
X20843071Y-10201214D01*
X20871643Y-10215500D01*
X20885928Y-10229786D01*
X20900214Y-10258357D01*
X20914500Y-10315500D01*
X20914500Y-10386929D01*
X20900214Y-10444072D01*
X20885928Y-10472643D01*
X20871643Y-10486929D01*
X20843071Y-10501214D01*
X20814500Y-10501214D01*
X20785928Y-10486929D01*
X20771643Y-10472643D01*
X20757357Y-10444072D01*
X20743071Y-10386929D01*
X20743071Y-10315500D01*
X20757357Y-10258357D01*
X20771643Y-10229786D01*
X20785928Y-10215500D01*
X20814500Y-10201214D01*
X21043071Y-10472643D02*
X21057357Y-10486929D01*
X21043071Y-10501214D01*
X21028786Y-10486929D01*
X21043071Y-10472643D01*
X21043071Y-10501214D01*
X21243071Y-10201214D02*
X21271643Y-10201214D01*
X21300214Y-10215500D01*
X21314500Y-10229786D01*
X21328786Y-10258357D01*
X21343071Y-10315500D01*
X21343071Y-10386929D01*
X21328786Y-10444072D01*
X21314500Y-10472643D01*
X21300214Y-10486929D01*
X21271643Y-10501214D01*
X21243071Y-10501214D01*
X21214500Y-10486929D01*
X21200214Y-10472643D01*
X21185928Y-10444072D01*
X21171643Y-10386929D01*
X21171643Y-10315500D01*
X21185928Y-10258357D01*
X21200214Y-10229786D01*
X21214500Y-10215500D01*
X21243071Y-10201214D01*
X21628786Y-10501214D02*
X21457357Y-10501214D01*
X21543071Y-10501214D02*
X21543071Y-10201214D01*
X21514500Y-10244072D01*
X21485928Y-10272643D01*
X21457357Y-10286929D01*
X21885928Y-10201214D02*
X21828786Y-10201214D01*
X21800214Y-10215500D01*
X21785928Y-10229786D01*
X21757357Y-10272643D01*
X21743071Y-10329786D01*
X21743071Y-10444072D01*
X21757357Y-10472643D01*
X21771643Y-10486929D01*
X21800214Y-10501214D01*
X21857357Y-10501214D01*
X21885928Y-10486929D01*
X21900214Y-10472643D01*
X21914500Y-10444072D01*
X21914500Y-10372643D01*
X21900214Y-10344072D01*
X21885928Y-10329786D01*
X21857357Y-10315500D01*
X21800214Y-10315500D01*
X21771643Y-10329786D01*
X21757357Y-10344072D01*
X21743071Y-10372643D01*
X22028786Y-10201214D02*
X22028786Y-10258357D01*
X22143071Y-10201214D02*
X22143071Y-10258357D01*
X22585928Y-10615500D02*
X22571643Y-10601214D01*
X22543071Y-10558357D01*
X22528786Y-10529786D01*
X22514500Y-10486929D01*
X22500214Y-10415500D01*
X22500214Y-10358357D01*
X22514500Y-10286929D01*
X22528786Y-10244072D01*
X22543071Y-10215500D01*
X22571643Y-10172643D01*
X22585928Y-10158357D01*
X22857357Y-10501214D02*
X22685928Y-10501214D01*
X22771643Y-10501214D02*
X22771643Y-10201214D01*
X22743071Y-10244072D01*
X22714500Y-10272643D01*
X22685928Y-10286929D01*
X23028786Y-10329786D02*
X23000214Y-10315500D01*
X22985928Y-10301214D01*
X22971643Y-10272643D01*
X22971643Y-10258357D01*
X22985928Y-10229786D01*
X23000214Y-10215500D01*
X23028786Y-10201214D01*
X23085928Y-10201214D01*
X23114500Y-10215500D01*
X23128786Y-10229786D01*
X23143071Y-10258357D01*
X23143071Y-10272643D01*
X23128786Y-10301214D01*
X23114500Y-10315500D01*
X23085928Y-10329786D01*
X23028786Y-10329786D01*
X23000214Y-10344072D01*
X22985928Y-10358357D01*
X22971643Y-10386929D01*
X22971643Y-10444072D01*
X22985928Y-10472643D01*
X23000214Y-10486929D01*
X23028786Y-10501214D01*
X23085928Y-10501214D01*
X23114500Y-10486929D01*
X23128786Y-10472643D01*
X23143071Y-10444072D01*
X23143071Y-10386929D01*
X23128786Y-10358357D01*
X23114500Y-10344072D01*
X23085928Y-10329786D01*
X23500214Y-10501214D02*
X23500214Y-10201214D01*
X23628786Y-10501214D02*
X23628786Y-10344072D01*
X23614500Y-10315500D01*
X23585928Y-10301214D01*
X23543071Y-10301214D01*
X23514500Y-10315500D01*
X23500214Y-10329786D01*
X23814500Y-10501214D02*
X23785928Y-10486929D01*
X23771643Y-10472643D01*
X23757357Y-10444072D01*
X23757357Y-10358357D01*
X23771643Y-10329786D01*
X23785928Y-10315500D01*
X23814500Y-10301214D01*
X23857357Y-10301214D01*
X23885928Y-10315500D01*
X23900214Y-10329786D01*
X23914500Y-10358357D01*
X23914500Y-10444072D01*
X23900214Y-10472643D01*
X23885928Y-10486929D01*
X23857357Y-10501214D01*
X23814500Y-10501214D01*
X24085928Y-10501214D02*
X24057357Y-10486929D01*
X24043071Y-10458357D01*
X24043071Y-10201214D01*
X24314500Y-10486929D02*
X24285928Y-10501214D01*
X24228786Y-10501214D01*
X24200214Y-10486929D01*
X24185928Y-10458357D01*
X24185928Y-10344072D01*
X24200214Y-10315500D01*
X24228786Y-10301214D01*
X24285928Y-10301214D01*
X24314500Y-10315500D01*
X24328786Y-10344072D01*
X24328786Y-10372643D01*
X24185928Y-10401214D01*
X24443071Y-10486929D02*
X24471643Y-10501214D01*
X24528786Y-10501214D01*
X24557357Y-10486929D01*
X24571643Y-10458357D01*
X24571643Y-10444072D01*
X24557357Y-10415500D01*
X24528786Y-10401214D01*
X24485928Y-10401214D01*
X24457357Y-10386929D01*
X24443071Y-10358357D01*
X24443071Y-10344072D01*
X24457357Y-10315500D01*
X24485928Y-10301214D01*
X24528786Y-10301214D01*
X24557357Y-10315500D01*
X24671643Y-10615500D02*
X24685928Y-10601214D01*
X24714500Y-10558357D01*
X24728786Y-10529786D01*
X24743071Y-10486929D01*
X24757357Y-10415500D01*
X24757357Y-10358357D01*
X24743071Y-10286929D01*
X24728786Y-10244072D01*
X24714500Y-10215500D01*
X24685928Y-10172643D01*
X24671643Y-10158357D01*
X17899500Y-10761500D02*
G75*
G03X17899500Y-10761500I-50000J0D01*
G01*
X18343071Y-10897214D02*
X18171643Y-10897214D01*
X18257357Y-10897214D02*
X18257357Y-10597214D01*
X18228786Y-10640072D01*
X18200214Y-10668643D01*
X18171643Y-10682929D01*
X18471643Y-10868643D02*
X18485928Y-10882929D01*
X18471643Y-10897214D01*
X18457357Y-10882929D01*
X18471643Y-10868643D01*
X18471643Y-10897214D01*
X18671643Y-10597214D02*
X18700214Y-10597214D01*
X18728786Y-10611500D01*
X18743071Y-10625786D01*
X18757357Y-10654357D01*
X18771643Y-10711500D01*
X18771643Y-10782929D01*
X18757357Y-10840072D01*
X18743071Y-10868643D01*
X18728786Y-10882929D01*
X18700214Y-10897214D01*
X18671643Y-10897214D01*
X18643071Y-10882929D01*
X18628786Y-10868643D01*
X18614500Y-10840072D01*
X18600214Y-10782929D01*
X18600214Y-10711500D01*
X18614500Y-10654357D01*
X18628786Y-10625786D01*
X18643071Y-10611500D01*
X18671643Y-10597214D01*
X18957357Y-10597214D02*
X18985928Y-10597214D01*
X19014500Y-10611500D01*
X19028786Y-10625786D01*
X19043071Y-10654357D01*
X19057357Y-10711500D01*
X19057357Y-10782929D01*
X19043071Y-10840072D01*
X19028786Y-10868643D01*
X19014500Y-10882929D01*
X18985928Y-10897214D01*
X18957357Y-10897214D01*
X18928786Y-10882929D01*
X18914500Y-10868643D01*
X18900214Y-10840072D01*
X18885928Y-10782929D01*
X18885928Y-10711500D01*
X18900214Y-10654357D01*
X18914500Y-10625786D01*
X18928786Y-10611500D01*
X18957357Y-10597214D01*
X19185928Y-10897214D02*
X19185928Y-10697214D01*
X19185928Y-10725786D02*
X19200214Y-10711500D01*
X19228786Y-10697214D01*
X19271643Y-10697214D01*
X19300214Y-10711500D01*
X19314500Y-10740072D01*
X19314500Y-10897214D01*
X19314500Y-10740072D02*
X19328786Y-10711500D01*
X19357357Y-10697214D01*
X19400214Y-10697214D01*
X19428786Y-10711500D01*
X19443071Y-10740072D01*
X19443071Y-10897214D01*
X19585928Y-10897214D02*
X19585928Y-10697214D01*
X19585928Y-10725786D02*
X19600214Y-10711500D01*
X19628786Y-10697214D01*
X19671643Y-10697214D01*
X19700214Y-10711500D01*
X19714500Y-10740072D01*
X19714500Y-10897214D01*
X19714500Y-10740072D02*
X19728786Y-10711500D01*
X19757357Y-10697214D01*
X19800214Y-10697214D01*
X19828786Y-10711500D01*
X19843071Y-10740072D01*
X19843071Y-10897214D01*
X20428786Y-10582929D02*
X20171643Y-10968643D01*
X20814500Y-10597214D02*
X20843071Y-10597214D01*
X20871643Y-10611500D01*
X20885928Y-10625786D01*
X20900214Y-10654357D01*
X20914500Y-10711500D01*
X20914500Y-10782929D01*
X20900214Y-10840072D01*
X20885928Y-10868643D01*
X20871643Y-10882929D01*
X20843071Y-10897214D01*
X20814500Y-10897214D01*
X20785928Y-10882929D01*
X20771643Y-10868643D01*
X20757357Y-10840072D01*
X20743071Y-10782929D01*
X20743071Y-10711500D01*
X20757357Y-10654357D01*
X20771643Y-10625786D01*
X20785928Y-10611500D01*
X20814500Y-10597214D01*
X21043071Y-10868643D02*
X21057357Y-10882929D01*
X21043071Y-10897214D01*
X21028786Y-10882929D01*
X21043071Y-10868643D01*
X21043071Y-10897214D01*
X21243071Y-10597214D02*
X21271643Y-10597214D01*
X21300214Y-10611500D01*
X21314500Y-10625786D01*
X21328786Y-10654357D01*
X21343071Y-10711500D01*
X21343071Y-10782929D01*
X21328786Y-10840072D01*
X21314500Y-10868643D01*
X21300214Y-10882929D01*
X21271643Y-10897214D01*
X21243071Y-10897214D01*
X21214500Y-10882929D01*
X21200214Y-10868643D01*
X21185928Y-10840072D01*
X21171643Y-10782929D01*
X21171643Y-10711500D01*
X21185928Y-10654357D01*
X21200214Y-10625786D01*
X21214500Y-10611500D01*
X21243071Y-10597214D01*
X21443071Y-10597214D02*
X21628786Y-10597214D01*
X21528786Y-10711500D01*
X21571643Y-10711500D01*
X21600214Y-10725786D01*
X21614500Y-10740072D01*
X21628786Y-10768643D01*
X21628786Y-10840072D01*
X21614500Y-10868643D01*
X21600214Y-10882929D01*
X21571643Y-10897214D01*
X21485928Y-10897214D01*
X21457357Y-10882929D01*
X21443071Y-10868643D01*
X21771643Y-10897214D02*
X21828786Y-10897214D01*
X21857357Y-10882929D01*
X21871643Y-10868643D01*
X21900214Y-10825786D01*
X21914500Y-10768643D01*
X21914500Y-10654357D01*
X21900214Y-10625786D01*
X21885928Y-10611500D01*
X21857357Y-10597214D01*
X21800214Y-10597214D01*
X21771643Y-10611500D01*
X21757357Y-10625786D01*
X21743071Y-10654357D01*
X21743071Y-10725786D01*
X21757357Y-10754357D01*
X21771643Y-10768643D01*
X21800214Y-10782929D01*
X21857357Y-10782929D01*
X21885928Y-10768643D01*
X21900214Y-10754357D01*
X21914500Y-10725786D01*
X22028786Y-10597214D02*
X22028786Y-10654357D01*
X22143071Y-10597214D02*
X22143071Y-10654357D01*
X22585928Y-11011500D02*
X22571643Y-10997214D01*
X22543071Y-10954357D01*
X22528786Y-10925786D01*
X22514500Y-10882929D01*
X22500214Y-10811500D01*
X22500214Y-10754357D01*
X22514500Y-10682929D01*
X22528786Y-10640072D01*
X22543071Y-10611500D01*
X22571643Y-10568643D01*
X22585928Y-10554357D01*
X22857357Y-10897214D02*
X22685928Y-10897214D01*
X22771643Y-10897214D02*
X22771643Y-10597214D01*
X22743071Y-10640072D01*
X22714500Y-10668643D01*
X22685928Y-10682929D01*
X22957357Y-10597214D02*
X23143071Y-10597214D01*
X23043071Y-10711500D01*
X23085928Y-10711500D01*
X23114500Y-10725786D01*
X23128786Y-10740072D01*
X23143071Y-10768643D01*
X23143071Y-10840072D01*
X23128786Y-10868643D01*
X23114500Y-10882929D01*
X23085928Y-10897214D01*
X23000214Y-10897214D01*
X22971643Y-10882929D01*
X22957357Y-10868643D01*
X23500214Y-10897214D02*
X23500214Y-10597214D01*
X23628786Y-10897214D02*
X23628786Y-10740072D01*
X23614500Y-10711500D01*
X23585928Y-10697214D01*
X23543071Y-10697214D01*
X23514500Y-10711500D01*
X23500214Y-10725786D01*
X23814500Y-10897214D02*
X23785928Y-10882929D01*
X23771643Y-10868643D01*
X23757357Y-10840072D01*
X23757357Y-10754357D01*
X23771643Y-10725786D01*
X23785928Y-10711500D01*
X23814500Y-10697214D01*
X23857357Y-10697214D01*
X23885928Y-10711500D01*
X23900214Y-10725786D01*
X23914500Y-10754357D01*
X23914500Y-10840072D01*
X23900214Y-10868643D01*
X23885928Y-10882929D01*
X23857357Y-10897214D01*
X23814500Y-10897214D01*
X24085928Y-10897214D02*
X24057357Y-10882929D01*
X24043071Y-10854357D01*
X24043071Y-10597214D01*
X24314500Y-10882929D02*
X24285928Y-10897214D01*
X24228786Y-10897214D01*
X24200214Y-10882929D01*
X24185928Y-10854357D01*
X24185928Y-10740072D01*
X24200214Y-10711500D01*
X24228786Y-10697214D01*
X24285928Y-10697214D01*
X24314500Y-10711500D01*
X24328786Y-10740072D01*
X24328786Y-10768643D01*
X24185928Y-10797214D01*
X24443071Y-10882929D02*
X24471643Y-10897214D01*
X24528786Y-10897214D01*
X24557357Y-10882929D01*
X24571643Y-10854357D01*
X24571643Y-10840072D01*
X24557357Y-10811500D01*
X24528786Y-10797214D01*
X24485928Y-10797214D01*
X24457357Y-10782929D01*
X24443071Y-10754357D01*
X24443071Y-10740072D01*
X24457357Y-10711500D01*
X24485928Y-10697214D01*
X24528786Y-10697214D01*
X24557357Y-10711500D01*
X24671643Y-11011500D02*
X24685928Y-10997214D01*
X24714500Y-10954357D01*
X24728786Y-10925786D01*
X24743071Y-10882929D01*
X24757357Y-10811500D01*
X24757357Y-10754357D01*
X24743071Y-10682929D01*
X24728786Y-10640072D01*
X24714500Y-10611500D01*
X24685928Y-10568643D01*
X24671643Y-10554357D01*
X17839500Y-11097500D02*
X17839500Y-11217500D01*
X17779500Y-11157500D02*
X17899500Y-11157500D01*
X18343071Y-11293214D02*
X18171643Y-11293214D01*
X18257357Y-11293214D02*
X18257357Y-10993214D01*
X18228786Y-11036072D01*
X18200214Y-11064643D01*
X18171643Y-11078929D01*
X18471643Y-11264643D02*
X18485928Y-11278929D01*
X18471643Y-11293214D01*
X18457357Y-11278929D01*
X18471643Y-11264643D01*
X18471643Y-11293214D01*
X18600214Y-11021786D02*
X18614500Y-11007500D01*
X18643071Y-10993214D01*
X18714500Y-10993214D01*
X18743071Y-11007500D01*
X18757357Y-11021786D01*
X18771643Y-11050357D01*
X18771643Y-11078929D01*
X18757357Y-11121786D01*
X18585928Y-11293214D01*
X18771643Y-11293214D01*
X18957357Y-10993214D02*
X18985928Y-10993214D01*
X19014500Y-11007500D01*
X19028786Y-11021786D01*
X19043071Y-11050357D01*
X19057357Y-11107500D01*
X19057357Y-11178929D01*
X19043071Y-11236071D01*
X19028786Y-11264643D01*
X19014500Y-11278929D01*
X18985928Y-11293214D01*
X18957357Y-11293214D01*
X18928786Y-11278929D01*
X18914500Y-11264643D01*
X18900214Y-11236071D01*
X18885928Y-11178929D01*
X18885928Y-11107500D01*
X18900214Y-11050357D01*
X18914500Y-11021786D01*
X18928786Y-11007500D01*
X18957357Y-10993214D01*
X19185928Y-11293214D02*
X19185928Y-11093214D01*
X19185928Y-11121786D02*
X19200214Y-11107500D01*
X19228786Y-11093214D01*
X19271643Y-11093214D01*
X19300214Y-11107500D01*
X19314500Y-11136072D01*
X19314500Y-11293214D01*
X19314500Y-11136072D02*
X19328786Y-11107500D01*
X19357357Y-11093214D01*
X19400214Y-11093214D01*
X19428786Y-11107500D01*
X19443071Y-11136072D01*
X19443071Y-11293214D01*
X19585928Y-11293214D02*
X19585928Y-11093214D01*
X19585928Y-11121786D02*
X19600214Y-11107500D01*
X19628786Y-11093214D01*
X19671643Y-11093214D01*
X19700214Y-11107500D01*
X19714500Y-11136072D01*
X19714500Y-11293214D01*
X19714500Y-11136072D02*
X19728786Y-11107500D01*
X19757357Y-11093214D01*
X19800214Y-11093214D01*
X19828786Y-11107500D01*
X19843071Y-11136072D01*
X19843071Y-11293214D01*
X20428786Y-10978929D02*
X20171643Y-11364643D01*
X20814500Y-10993214D02*
X20843071Y-10993214D01*
X20871643Y-11007500D01*
X20885928Y-11021786D01*
X20900214Y-11050357D01*
X20914500Y-11107500D01*
X20914500Y-11178929D01*
X20900214Y-11236071D01*
X20885928Y-11264643D01*
X20871643Y-11278929D01*
X20843071Y-11293214D01*
X20814500Y-11293214D01*
X20785928Y-11278929D01*
X20771643Y-11264643D01*
X20757357Y-11236071D01*
X20743071Y-11178929D01*
X20743071Y-11107500D01*
X20757357Y-11050357D01*
X20771643Y-11021786D01*
X20785928Y-11007500D01*
X20814500Y-10993214D01*
X21043071Y-11264643D02*
X21057357Y-11278929D01*
X21043071Y-11293214D01*
X21028786Y-11278929D01*
X21043071Y-11264643D01*
X21043071Y-11293214D01*
X21243071Y-10993214D02*
X21271643Y-10993214D01*
X21300214Y-11007500D01*
X21314500Y-11021786D01*
X21328786Y-11050357D01*
X21343071Y-11107500D01*
X21343071Y-11178929D01*
X21328786Y-11236071D01*
X21314500Y-11264643D01*
X21300214Y-11278929D01*
X21271643Y-11293214D01*
X21243071Y-11293214D01*
X21214500Y-11278929D01*
X21200214Y-11264643D01*
X21185928Y-11236071D01*
X21171643Y-11178929D01*
X21171643Y-11107500D01*
X21185928Y-11050357D01*
X21200214Y-11021786D01*
X21214500Y-11007500D01*
X21243071Y-10993214D01*
X21600214Y-11093214D02*
X21600214Y-11293214D01*
X21528786Y-10978929D02*
X21457357Y-11193214D01*
X21643071Y-11193214D01*
X21728786Y-10993214D02*
X21928786Y-10993214D01*
X21800214Y-11293214D01*
X22028786Y-10993214D02*
X22028786Y-11050357D01*
X22143071Y-10993214D02*
X22143071Y-11050357D01*
X22585928Y-11407500D02*
X22571643Y-11393214D01*
X22543071Y-11350357D01*
X22528786Y-11321786D01*
X22514500Y-11278929D01*
X22500214Y-11207500D01*
X22500214Y-11150357D01*
X22514500Y-11078929D01*
X22528786Y-11036072D01*
X22543071Y-11007500D01*
X22571643Y-10964643D01*
X22585928Y-10950357D01*
X22685928Y-11021786D02*
X22700214Y-11007500D01*
X22728786Y-10993214D01*
X22800214Y-10993214D01*
X22828786Y-11007500D01*
X22843071Y-11021786D01*
X22857357Y-11050357D01*
X22857357Y-11078929D01*
X22843071Y-11121786D01*
X22671643Y-11293214D01*
X22857357Y-11293214D01*
X23214500Y-11293214D02*
X23214500Y-10993214D01*
X23343071Y-11293214D02*
X23343071Y-11136072D01*
X23328786Y-11107500D01*
X23300214Y-11093214D01*
X23257357Y-11093214D01*
X23228786Y-11107500D01*
X23214500Y-11121786D01*
X23528786Y-11293214D02*
X23500214Y-11278929D01*
X23485928Y-11264643D01*
X23471643Y-11236071D01*
X23471643Y-11150357D01*
X23485928Y-11121786D01*
X23500214Y-11107500D01*
X23528786Y-11093214D01*
X23571643Y-11093214D01*
X23600214Y-11107500D01*
X23614500Y-11121786D01*
X23628786Y-11150357D01*
X23628786Y-11236071D01*
X23614500Y-11264643D01*
X23600214Y-11278929D01*
X23571643Y-11293214D01*
X23528786Y-11293214D01*
X23800214Y-11293214D02*
X23771643Y-11278929D01*
X23757357Y-11250357D01*
X23757357Y-10993214D01*
X24028786Y-11278929D02*
X24000214Y-11293214D01*
X23943071Y-11293214D01*
X23914500Y-11278929D01*
X23900214Y-11250357D01*
X23900214Y-11136072D01*
X23914500Y-11107500D01*
X23943071Y-11093214D01*
X24000214Y-11093214D01*
X24028786Y-11107500D01*
X24043071Y-11136072D01*
X24043071Y-11164643D01*
X23900214Y-11193214D01*
X24157357Y-11278929D02*
X24185928Y-11293214D01*
X24243071Y-11293214D01*
X24271643Y-11278929D01*
X24285928Y-11250357D01*
X24285928Y-11236071D01*
X24271643Y-11207500D01*
X24243071Y-11193214D01*
X24200214Y-11193214D01*
X24171643Y-11178929D01*
X24157357Y-11150357D01*
X24157357Y-11136072D01*
X24171643Y-11107500D01*
X24200214Y-11093214D01*
X24243071Y-11093214D01*
X24271643Y-11107500D01*
X24385928Y-11407500D02*
X24400214Y-11393214D01*
X24428786Y-11350357D01*
X24443071Y-11321786D01*
X24457357Y-11278929D01*
X24471643Y-11207500D01*
X24471643Y-11150357D01*
X24457357Y-11078929D01*
X24443071Y-11036072D01*
X24428786Y-11007500D01*
X24400214Y-10964643D01*
X24385928Y-10950357D01*
M02*
