G04 #@! TF.GenerationSoftware,KiCad,Pcbnew,5.0.0*
G04 #@! TF.CreationDate,2018-10-11T21:07:35-04:00*
G04 #@! TF.ProjectId,I2C_Thermocouple,4932435F546865726D6F636F75706C65,rev?*
G04 #@! TF.SameCoordinates,Original*
G04 #@! TF.FileFunction,Legend,Top*
G04 #@! TF.FilePolarity,Positive*
%FSLAX46Y46*%
G04 Gerber Fmt 4.6, Leading zero omitted, Abs format (unit mm)*
G04 Created by KiCad (PCBNEW 5.0.0) date Thu Oct 11 21:07:35 2018*
%MOMM*%
%LPD*%
G01*
G04 APERTURE LIST*
%ADD10C,0.100000*%
%ADD11C,0.150000*%
%ADD12C,0.120000*%
G04 APERTURE END LIST*
D10*
X201320476Y-79179000D02*
X201244285Y-79136142D01*
X201130000Y-79136142D01*
X201015714Y-79179000D01*
X200939523Y-79264714D01*
X200901428Y-79350428D01*
X200863333Y-79521857D01*
X200863333Y-79650428D01*
X200901428Y-79821857D01*
X200939523Y-79907571D01*
X201015714Y-79993285D01*
X201130000Y-80036142D01*
X201206190Y-80036142D01*
X201320476Y-79993285D01*
X201358571Y-79950428D01*
X201358571Y-79650428D01*
X201206190Y-79650428D01*
X201701428Y-80036142D02*
X201701428Y-79136142D01*
X202158571Y-80036142D01*
X202158571Y-79136142D01*
X202539523Y-80036142D02*
X202539523Y-79136142D01*
X202730000Y-79136142D01*
X202844285Y-79179000D01*
X202920476Y-79264714D01*
X202958571Y-79350428D01*
X202996666Y-79521857D01*
X202996666Y-79650428D01*
X202958571Y-79821857D01*
X202920476Y-79907571D01*
X202844285Y-79993285D01*
X202730000Y-80036142D01*
X202539523Y-80036142D01*
X200643285Y-87312380D02*
X200686142Y-87198095D01*
X200686142Y-87007619D01*
X200643285Y-86931428D01*
X200600428Y-86893333D01*
X200514714Y-86855238D01*
X200429000Y-86855238D01*
X200343285Y-86893333D01*
X200300428Y-86931428D01*
X200257571Y-87007619D01*
X200214714Y-87160000D01*
X200171857Y-87236190D01*
X200129000Y-87274285D01*
X200043285Y-87312380D01*
X199957571Y-87312380D01*
X199871857Y-87274285D01*
X199829000Y-87236190D01*
X199786142Y-87160000D01*
X199786142Y-86969523D01*
X199829000Y-86855238D01*
X200600428Y-86055238D02*
X200643285Y-86093333D01*
X200686142Y-86207619D01*
X200686142Y-86283809D01*
X200643285Y-86398095D01*
X200557571Y-86474285D01*
X200471857Y-86512380D01*
X200300428Y-86550476D01*
X200171857Y-86550476D01*
X200000428Y-86512380D01*
X199914714Y-86474285D01*
X199829000Y-86398095D01*
X199786142Y-86283809D01*
X199786142Y-86207619D01*
X199829000Y-86093333D01*
X199871857Y-86055238D01*
X200686142Y-85331428D02*
X200686142Y-85712380D01*
X199786142Y-85712380D01*
X200643285Y-89998428D02*
X200686142Y-89884142D01*
X200686142Y-89693666D01*
X200643285Y-89617476D01*
X200600428Y-89579380D01*
X200514714Y-89541285D01*
X200429000Y-89541285D01*
X200343285Y-89579380D01*
X200300428Y-89617476D01*
X200257571Y-89693666D01*
X200214714Y-89846047D01*
X200171857Y-89922238D01*
X200129000Y-89960333D01*
X200043285Y-89998428D01*
X199957571Y-89998428D01*
X199871857Y-89960333D01*
X199829000Y-89922238D01*
X199786142Y-89846047D01*
X199786142Y-89655571D01*
X199829000Y-89541285D01*
X200686142Y-89198428D02*
X199786142Y-89198428D01*
X199786142Y-89007952D01*
X199829000Y-88893666D01*
X199914714Y-88817476D01*
X200000428Y-88779380D01*
X200171857Y-88741285D01*
X200300428Y-88741285D01*
X200471857Y-88779380D01*
X200557571Y-88817476D01*
X200643285Y-88893666D01*
X200686142Y-89007952D01*
X200686142Y-89198428D01*
X200429000Y-88436523D02*
X200429000Y-88055571D01*
X200686142Y-88512714D02*
X199786142Y-88246047D01*
X200686142Y-87979380D01*
X199786142Y-92392380D02*
X199786142Y-91897142D01*
X200129000Y-92163809D01*
X200129000Y-92049523D01*
X200171857Y-91973333D01*
X200214714Y-91935238D01*
X200300428Y-91897142D01*
X200514714Y-91897142D01*
X200600428Y-91935238D01*
X200643285Y-91973333D01*
X200686142Y-92049523D01*
X200686142Y-92278095D01*
X200643285Y-92354285D01*
X200600428Y-92392380D01*
X200086142Y-91630476D02*
X200686142Y-91440000D01*
X200086142Y-91249523D01*
X199786142Y-91020952D02*
X199786142Y-90525714D01*
X200129000Y-90792380D01*
X200129000Y-90678095D01*
X200171857Y-90601904D01*
X200214714Y-90563809D01*
X200300428Y-90525714D01*
X200514714Y-90525714D01*
X200600428Y-90563809D01*
X200643285Y-90601904D01*
X200686142Y-90678095D01*
X200686142Y-90906666D01*
X200643285Y-90982857D01*
X200600428Y-91020952D01*
X193268571Y-86767142D02*
X192811428Y-86767142D01*
X193040000Y-86767142D02*
X193040000Y-85867142D01*
X192963809Y-85995714D01*
X192887619Y-86081428D01*
X192811428Y-86124285D01*
X182397476Y-78925000D02*
X182321285Y-78882142D01*
X182207000Y-78882142D01*
X182092714Y-78925000D01*
X182016523Y-79010714D01*
X181978428Y-79096428D01*
X181940333Y-79267857D01*
X181940333Y-79396428D01*
X181978428Y-79567857D01*
X182016523Y-79653571D01*
X182092714Y-79739285D01*
X182207000Y-79782142D01*
X182283190Y-79782142D01*
X182397476Y-79739285D01*
X182435571Y-79696428D01*
X182435571Y-79396428D01*
X182283190Y-79396428D01*
X182778428Y-79782142D02*
X182778428Y-78882142D01*
X183235571Y-79782142D01*
X183235571Y-78882142D01*
X183616523Y-79782142D02*
X183616523Y-78882142D01*
X183807000Y-78882142D01*
X183921285Y-78925000D01*
X183997476Y-79010714D01*
X184035571Y-79096428D01*
X184073666Y-79267857D01*
X184073666Y-79396428D01*
X184035571Y-79567857D01*
X183997476Y-79653571D01*
X183921285Y-79739285D01*
X183807000Y-79782142D01*
X183616523Y-79782142D01*
X184935000Y-84639047D02*
X184935000Y-84258095D01*
X185192142Y-84715238D02*
X184292142Y-84448571D01*
X185192142Y-84181904D01*
X185192142Y-83534285D02*
X185192142Y-83915238D01*
X184292142Y-83915238D01*
X184292142Y-83381904D02*
X184292142Y-82924761D01*
X185192142Y-83153333D02*
X184292142Y-83153333D01*
X185149285Y-87312380D02*
X185192142Y-87198095D01*
X185192142Y-87007619D01*
X185149285Y-86931428D01*
X185106428Y-86893333D01*
X185020714Y-86855238D01*
X184935000Y-86855238D01*
X184849285Y-86893333D01*
X184806428Y-86931428D01*
X184763571Y-87007619D01*
X184720714Y-87160000D01*
X184677857Y-87236190D01*
X184635000Y-87274285D01*
X184549285Y-87312380D01*
X184463571Y-87312380D01*
X184377857Y-87274285D01*
X184335000Y-87236190D01*
X184292142Y-87160000D01*
X184292142Y-86969523D01*
X184335000Y-86855238D01*
X185106428Y-86055238D02*
X185149285Y-86093333D01*
X185192142Y-86207619D01*
X185192142Y-86283809D01*
X185149285Y-86398095D01*
X185063571Y-86474285D01*
X184977857Y-86512380D01*
X184806428Y-86550476D01*
X184677857Y-86550476D01*
X184506428Y-86512380D01*
X184420714Y-86474285D01*
X184335000Y-86398095D01*
X184292142Y-86283809D01*
X184292142Y-86207619D01*
X184335000Y-86093333D01*
X184377857Y-86055238D01*
X185192142Y-85331428D02*
X185192142Y-85712380D01*
X184292142Y-85712380D01*
X185149285Y-89871428D02*
X185192142Y-89757142D01*
X185192142Y-89566666D01*
X185149285Y-89490476D01*
X185106428Y-89452380D01*
X185020714Y-89414285D01*
X184935000Y-89414285D01*
X184849285Y-89452380D01*
X184806428Y-89490476D01*
X184763571Y-89566666D01*
X184720714Y-89719047D01*
X184677857Y-89795238D01*
X184635000Y-89833333D01*
X184549285Y-89871428D01*
X184463571Y-89871428D01*
X184377857Y-89833333D01*
X184335000Y-89795238D01*
X184292142Y-89719047D01*
X184292142Y-89528571D01*
X184335000Y-89414285D01*
X185192142Y-89071428D02*
X184292142Y-89071428D01*
X184292142Y-88880952D01*
X184335000Y-88766666D01*
X184420714Y-88690476D01*
X184506428Y-88652380D01*
X184677857Y-88614285D01*
X184806428Y-88614285D01*
X184977857Y-88652380D01*
X185063571Y-88690476D01*
X185149285Y-88766666D01*
X185192142Y-88880952D01*
X185192142Y-89071428D01*
X184935000Y-88309523D02*
X184935000Y-87928571D01*
X185192142Y-88385714D02*
X184292142Y-88119047D01*
X185192142Y-87852380D01*
X184292142Y-92392380D02*
X184292142Y-91897142D01*
X184635000Y-92163809D01*
X184635000Y-92049523D01*
X184677857Y-91973333D01*
X184720714Y-91935238D01*
X184806428Y-91897142D01*
X185020714Y-91897142D01*
X185106428Y-91935238D01*
X185149285Y-91973333D01*
X185192142Y-92049523D01*
X185192142Y-92278095D01*
X185149285Y-92354285D01*
X185106428Y-92392380D01*
X184592142Y-91630476D02*
X185192142Y-91440000D01*
X184592142Y-91249523D01*
X184292142Y-91020952D02*
X184292142Y-90525714D01*
X184635000Y-90792380D01*
X184635000Y-90678095D01*
X184677857Y-90601904D01*
X184720714Y-90563809D01*
X184806428Y-90525714D01*
X185020714Y-90525714D01*
X185106428Y-90563809D01*
X185149285Y-90601904D01*
X185192142Y-90678095D01*
X185192142Y-90906666D01*
X185149285Y-90982857D01*
X185106428Y-91020952D01*
X191496904Y-87413809D02*
X190696904Y-87413809D01*
X190506428Y-87070952D02*
X190468333Y-86994761D01*
X190468333Y-86880476D01*
X190506428Y-86804285D01*
X190582619Y-86766190D01*
X190658809Y-86766190D01*
X190735000Y-86804285D01*
X191001666Y-87070952D01*
X191001666Y-86766190D01*
X191420714Y-85966190D02*
X191458809Y-86004285D01*
X191496904Y-86118571D01*
X191496904Y-86194761D01*
X191458809Y-86309047D01*
X191382619Y-86385238D01*
X191306428Y-86423333D01*
X191154047Y-86461428D01*
X191039761Y-86461428D01*
X190887380Y-86423333D01*
X190811190Y-86385238D01*
X190735000Y-86309047D01*
X190696904Y-86194761D01*
X190696904Y-86118571D01*
X190735000Y-86004285D01*
X190773095Y-85966190D01*
X191268333Y-85051904D02*
X191268333Y-84670952D01*
X191496904Y-85128095D02*
X190696904Y-84861428D01*
X191496904Y-84594761D01*
X191496904Y-83985238D02*
X190696904Y-83985238D01*
X191458809Y-83985238D02*
X191496904Y-84061428D01*
X191496904Y-84213809D01*
X191458809Y-84290000D01*
X191420714Y-84328095D01*
X191344523Y-84366190D01*
X191115952Y-84366190D01*
X191039761Y-84328095D01*
X191001666Y-84290000D01*
X190963571Y-84213809D01*
X190963571Y-84061428D01*
X191001666Y-83985238D01*
X191496904Y-83261428D02*
X190696904Y-83261428D01*
X191458809Y-83261428D02*
X191496904Y-83337619D01*
X191496904Y-83490000D01*
X191458809Y-83566190D01*
X191420714Y-83604285D01*
X191344523Y-83642380D01*
X191115952Y-83642380D01*
X191039761Y-83604285D01*
X191001666Y-83566190D01*
X190963571Y-83490000D01*
X190963571Y-83337619D01*
X191001666Y-83261428D01*
X191496904Y-82880476D02*
X190963571Y-82880476D01*
X191115952Y-82880476D02*
X191039761Y-82842380D01*
X191001666Y-82804285D01*
X190963571Y-82728095D01*
X190963571Y-82651904D01*
D11*
X185712380Y-93117142D02*
X185712380Y-92217142D01*
X186055238Y-92002857D02*
X186131428Y-91960000D01*
X186245714Y-91960000D01*
X186321904Y-92002857D01*
X186360000Y-92088571D01*
X186360000Y-92174285D01*
X186321904Y-92260000D01*
X186055238Y-92560000D01*
X186360000Y-92560000D01*
X187160000Y-93031428D02*
X187121904Y-93074285D01*
X187007619Y-93117142D01*
X186931428Y-93117142D01*
X186817142Y-93074285D01*
X186740952Y-92988571D01*
X186702857Y-92902857D01*
X186664761Y-92731428D01*
X186664761Y-92602857D01*
X186702857Y-92431428D01*
X186740952Y-92345714D01*
X186817142Y-92260000D01*
X186931428Y-92217142D01*
X187007619Y-92217142D01*
X187121904Y-92260000D01*
X187160000Y-92302857D01*
X188112380Y-93117142D02*
X188112380Y-92217142D01*
X188417142Y-92217142D01*
X188493333Y-92260000D01*
X188531428Y-92302857D01*
X188569523Y-92388571D01*
X188569523Y-92517142D01*
X188531428Y-92602857D01*
X188493333Y-92645714D01*
X188417142Y-92688571D01*
X188112380Y-92688571D01*
X189483809Y-92174285D02*
X188798095Y-93331428D01*
X189750476Y-92217142D02*
X189750476Y-92945714D01*
X189788571Y-93031428D01*
X189826666Y-93074285D01*
X189902857Y-93117142D01*
X190055238Y-93117142D01*
X190131428Y-93074285D01*
X190169523Y-93031428D01*
X190207619Y-92945714D01*
X190207619Y-92217142D01*
D12*
G04 #@! TO.C,U1*
X192335000Y-85530000D02*
X192335000Y-86430000D01*
X197555000Y-81210000D02*
X196655000Y-81210000D01*
X197555000Y-82110000D02*
X197555000Y-81210000D01*
X197555000Y-86430000D02*
X196655000Y-86430000D01*
X197555000Y-85530000D02*
X197555000Y-86430000D01*
X192335000Y-81210000D02*
X193235000Y-81210000D01*
X192335000Y-82110000D02*
X192335000Y-81210000D01*
G04 #@! TO.C,J3*
X192465000Y-79315000D02*
X192465000Y-80645000D01*
X191135000Y-79315000D02*
X192465000Y-79315000D01*
X189865000Y-79315000D02*
X189865000Y-81975000D01*
X189865000Y-81975000D02*
X184725000Y-81975000D01*
X189865000Y-79315000D02*
X184725000Y-79315000D01*
X184725000Y-79315000D02*
X184725000Y-81975000D01*
G04 #@! TO.C,J4*
X212020000Y-92650000D02*
X203390000Y-92650000D01*
X212020000Y-92531905D02*
X203390000Y-92531905D01*
X212020000Y-92413810D02*
X203390000Y-92413810D01*
X212020000Y-92295715D02*
X203390000Y-92295715D01*
X212020000Y-92177620D02*
X203390000Y-92177620D01*
X212020000Y-92059525D02*
X203390000Y-92059525D01*
X212020000Y-91941430D02*
X203390000Y-91941430D01*
X212020000Y-91823335D02*
X203390000Y-91823335D01*
X212020000Y-91705240D02*
X203390000Y-91705240D01*
X212020000Y-91587145D02*
X203390000Y-91587145D01*
X212020000Y-91469050D02*
X203390000Y-91469050D01*
X212020000Y-91350955D02*
X203390000Y-91350955D01*
X212020000Y-91232860D02*
X203390000Y-91232860D01*
X212020000Y-91114765D02*
X203390000Y-91114765D01*
X212020000Y-90996670D02*
X203390000Y-90996670D01*
X212020000Y-90878575D02*
X203390000Y-90878575D01*
X212020000Y-90760480D02*
X203390000Y-90760480D01*
X212020000Y-90642385D02*
X203390000Y-90642385D01*
X212020000Y-90524290D02*
X203390000Y-90524290D01*
X212020000Y-90406195D02*
X203390000Y-90406195D01*
X212020000Y-90288100D02*
X203390000Y-90288100D01*
X203390000Y-91800000D02*
X203040000Y-91800000D01*
X203390000Y-91080000D02*
X203040000Y-91080000D01*
X203390000Y-89260000D02*
X202980000Y-89260000D01*
X203390000Y-88540000D02*
X202980000Y-88540000D01*
X203390000Y-86720000D02*
X202980000Y-86720000D01*
X203390000Y-86000000D02*
X202980000Y-86000000D01*
X203390000Y-84180000D02*
X202980000Y-84180000D01*
X203390000Y-83460000D02*
X202980000Y-83460000D01*
X203390000Y-81640000D02*
X202980000Y-81640000D01*
X203390000Y-80920000D02*
X202980000Y-80920000D01*
X212020000Y-90170000D02*
X203390000Y-90170000D01*
X212020000Y-87630000D02*
X203390000Y-87630000D01*
X212020000Y-85090000D02*
X203390000Y-85090000D01*
X212020000Y-82550000D02*
X203390000Y-82550000D01*
X212020000Y-92770000D02*
X203390000Y-92770000D01*
X203390000Y-92770000D02*
X203390000Y-79950000D01*
X212020000Y-79950000D02*
X203390000Y-79950000D01*
X212020000Y-92770000D02*
X212020000Y-79950000D01*
X200820000Y-92770000D02*
X200820000Y-91440000D01*
X201930000Y-92770000D02*
X200820000Y-92770000D01*
G04 #@! TO.C,C1*
X198680000Y-81841078D02*
X198680000Y-81323922D01*
X200100000Y-81841078D02*
X200100000Y-81323922D01*
G04 #@! TO.C,J1*
X181440000Y-92770000D02*
X181440000Y-79950000D01*
X181440000Y-79950000D02*
X178780000Y-79950000D01*
X178780000Y-79950000D02*
X178780000Y-92770000D01*
X178780000Y-92770000D02*
X181440000Y-92770000D01*
X178780000Y-91820000D02*
X172780000Y-91820000D01*
X172780000Y-91820000D02*
X172780000Y-91060000D01*
X172780000Y-91060000D02*
X178780000Y-91060000D01*
X178780000Y-91760000D02*
X172780000Y-91760000D01*
X178780000Y-91640000D02*
X172780000Y-91640000D01*
X178780000Y-91520000D02*
X172780000Y-91520000D01*
X178780000Y-91400000D02*
X172780000Y-91400000D01*
X178780000Y-91280000D02*
X172780000Y-91280000D01*
X178780000Y-91160000D02*
X172780000Y-91160000D01*
X181770000Y-91820000D02*
X181440000Y-91820000D01*
X181770000Y-91060000D02*
X181440000Y-91060000D01*
X181440000Y-90170000D02*
X178780000Y-90170000D01*
X178780000Y-89280000D02*
X172780000Y-89280000D01*
X172780000Y-89280000D02*
X172780000Y-88520000D01*
X172780000Y-88520000D02*
X178780000Y-88520000D01*
X181837071Y-89280000D02*
X181440000Y-89280000D01*
X181837071Y-88520000D02*
X181440000Y-88520000D01*
X181440000Y-87630000D02*
X178780000Y-87630000D01*
X178780000Y-86740000D02*
X172780000Y-86740000D01*
X172780000Y-86740000D02*
X172780000Y-85980000D01*
X172780000Y-85980000D02*
X178780000Y-85980000D01*
X181837071Y-86740000D02*
X181440000Y-86740000D01*
X181837071Y-85980000D02*
X181440000Y-85980000D01*
X181440000Y-85090000D02*
X178780000Y-85090000D01*
X178780000Y-84200000D02*
X172780000Y-84200000D01*
X172780000Y-84200000D02*
X172780000Y-83440000D01*
X172780000Y-83440000D02*
X178780000Y-83440000D01*
X181837071Y-84200000D02*
X181440000Y-84200000D01*
X181837071Y-83440000D02*
X181440000Y-83440000D01*
X181440000Y-82550000D02*
X178780000Y-82550000D01*
X178780000Y-81660000D02*
X172780000Y-81660000D01*
X172780000Y-81660000D02*
X172780000Y-80900000D01*
X172780000Y-80900000D02*
X178780000Y-80900000D01*
X181837071Y-81660000D02*
X181440000Y-81660000D01*
X181837071Y-80900000D02*
X181440000Y-80900000D01*
X184150000Y-91440000D02*
X184150000Y-92710000D01*
X184150000Y-92710000D02*
X182880000Y-92710000D01*
G04 #@! TO.C,R4*
X188520000Y-84831422D02*
X188520000Y-85348578D01*
X189940000Y-84831422D02*
X189940000Y-85348578D01*
G04 #@! TO.C,R3*
X185980000Y-85348578D02*
X185980000Y-84831422D01*
X187400000Y-85348578D02*
X187400000Y-84831422D01*
G04 #@! TO.C,R2*
X189940000Y-90428578D02*
X189940000Y-89911422D01*
X188520000Y-90428578D02*
X188520000Y-89911422D01*
G04 #@! TO.C,R1*
X185980000Y-90428578D02*
X185980000Y-89911422D01*
X187400000Y-90428578D02*
X187400000Y-89911422D01*
G04 #@! TO.C,J2*
X194565264Y-91594721D02*
G75*
G02X193675000Y-91850000I-890264J1424721D01*
G01*
X195100505Y-89279807D02*
G75*
G02X195100000Y-91061000I-1425505J-890193D01*
G01*
X192785106Y-88744642D02*
G75*
G02X194541000Y-88730000I889894J-1425358D01*
G01*
X192249642Y-91059894D02*
G75*
G02X192235000Y-89304000I1425358J889894D01*
G01*
X193703674Y-91850099D02*
G75*
G02X192809000Y-91610000I-28674J1680099D01*
G01*
X198855000Y-90170000D02*
G75*
G03X198855000Y-90170000I-1680000J0D01*
G01*
X191865000Y-94270000D02*
X198985000Y-94270000D01*
X191865000Y-93170000D02*
X198985000Y-93170000D01*
X191865000Y-87010000D02*
X198985000Y-87010000D01*
X191865000Y-94730000D02*
X198985000Y-94730000D01*
X191865000Y-87010000D02*
X191865000Y-94730000D01*
X198985000Y-87010000D02*
X198985000Y-94730000D01*
X198450000Y-89101000D02*
X198321000Y-89229000D01*
X196200000Y-91351000D02*
X196106000Y-91444000D01*
X198245000Y-88895000D02*
X198151000Y-88989000D01*
X196030000Y-91111000D02*
X195901000Y-91239000D01*
X191625000Y-94330000D02*
X191625000Y-94970000D01*
X191625000Y-94970000D02*
X192025000Y-94970000D01*
G04 #@! TO.C,J3*
D11*
X192917380Y-80978333D02*
X193631666Y-80978333D01*
X193774523Y-81025952D01*
X193869761Y-81121190D01*
X193917380Y-81264047D01*
X193917380Y-81359285D01*
X192917380Y-80597380D02*
X192917380Y-79978333D01*
X193298333Y-80311666D01*
X193298333Y-80168809D01*
X193345952Y-80073571D01*
X193393571Y-80025952D01*
X193488809Y-79978333D01*
X193726904Y-79978333D01*
X193822142Y-80025952D01*
X193869761Y-80073571D01*
X193917380Y-80168809D01*
X193917380Y-80454523D01*
X193869761Y-80549761D01*
X193822142Y-80597380D01*
G04 #@! TO.C,J4*
X202485666Y-92797380D02*
X202485666Y-93511666D01*
X202438047Y-93654523D01*
X202342809Y-93749761D01*
X202199952Y-93797380D01*
X202104714Y-93797380D01*
X203390428Y-93130714D02*
X203390428Y-93797380D01*
X203152333Y-92749761D02*
X202914238Y-93464047D01*
X203533285Y-93464047D01*
G04 #@! TO.C,C1*
X199223333Y-84479642D02*
X199175714Y-84527261D01*
X199032857Y-84574880D01*
X198937619Y-84574880D01*
X198794761Y-84527261D01*
X198699523Y-84432023D01*
X198651904Y-84336785D01*
X198604285Y-84146309D01*
X198604285Y-84003452D01*
X198651904Y-83812976D01*
X198699523Y-83717738D01*
X198794761Y-83622500D01*
X198937619Y-83574880D01*
X199032857Y-83574880D01*
X199175714Y-83622500D01*
X199223333Y-83670119D01*
X200175714Y-84574880D02*
X199604285Y-84574880D01*
X199890000Y-84574880D02*
X199890000Y-83574880D01*
X199794761Y-83717738D01*
X199699523Y-83812976D01*
X199604285Y-83860595D01*
G04 #@! TO.C,J1*
X180006666Y-92797380D02*
X180006666Y-93511666D01*
X179959047Y-93654523D01*
X179863809Y-93749761D01*
X179720952Y-93797380D01*
X179625714Y-93797380D01*
X181006666Y-93797380D02*
X180435238Y-93797380D01*
X180720952Y-93797380D02*
X180720952Y-92797380D01*
X180625714Y-92940238D01*
X180530476Y-93035476D01*
X180435238Y-93083095D01*
G04 #@! TO.C,R4*
X189063333Y-83002380D02*
X188730000Y-82526190D01*
X188491904Y-83002380D02*
X188491904Y-82002380D01*
X188872857Y-82002380D01*
X188968095Y-82050000D01*
X189015714Y-82097619D01*
X189063333Y-82192857D01*
X189063333Y-82335714D01*
X189015714Y-82430952D01*
X188968095Y-82478571D01*
X188872857Y-82526190D01*
X188491904Y-82526190D01*
X189920476Y-82335714D02*
X189920476Y-83002380D01*
X189682380Y-81954761D02*
X189444285Y-82669047D01*
X190063333Y-82669047D01*
G04 #@! TO.C,R3*
X186523333Y-83002380D02*
X186190000Y-82526190D01*
X185951904Y-83002380D02*
X185951904Y-82002380D01*
X186332857Y-82002380D01*
X186428095Y-82050000D01*
X186475714Y-82097619D01*
X186523333Y-82192857D01*
X186523333Y-82335714D01*
X186475714Y-82430952D01*
X186428095Y-82478571D01*
X186332857Y-82526190D01*
X185951904Y-82526190D01*
X186856666Y-82002380D02*
X187475714Y-82002380D01*
X187142380Y-82383333D01*
X187285238Y-82383333D01*
X187380476Y-82430952D01*
X187428095Y-82478571D01*
X187475714Y-82573809D01*
X187475714Y-82811904D01*
X187428095Y-82907142D01*
X187380476Y-82954761D01*
X187285238Y-83002380D01*
X186999523Y-83002380D01*
X186904285Y-82954761D01*
X186856666Y-82907142D01*
G04 #@! TO.C,R2*
X189063333Y-88082380D02*
X188730000Y-87606190D01*
X188491904Y-88082380D02*
X188491904Y-87082380D01*
X188872857Y-87082380D01*
X188968095Y-87130000D01*
X189015714Y-87177619D01*
X189063333Y-87272857D01*
X189063333Y-87415714D01*
X189015714Y-87510952D01*
X188968095Y-87558571D01*
X188872857Y-87606190D01*
X188491904Y-87606190D01*
X189444285Y-87177619D02*
X189491904Y-87130000D01*
X189587142Y-87082380D01*
X189825238Y-87082380D01*
X189920476Y-87130000D01*
X189968095Y-87177619D01*
X190015714Y-87272857D01*
X190015714Y-87368095D01*
X189968095Y-87510952D01*
X189396666Y-88082380D01*
X190015714Y-88082380D01*
G04 #@! TO.C,R1*
X186523333Y-88082380D02*
X186190000Y-87606190D01*
X185951904Y-88082380D02*
X185951904Y-87082380D01*
X186332857Y-87082380D01*
X186428095Y-87130000D01*
X186475714Y-87177619D01*
X186523333Y-87272857D01*
X186523333Y-87415714D01*
X186475714Y-87510952D01*
X186428095Y-87558571D01*
X186332857Y-87606190D01*
X185951904Y-87606190D01*
X187475714Y-88082380D02*
X186904285Y-88082380D01*
X187190000Y-88082380D02*
X187190000Y-87082380D01*
X187094761Y-87225238D01*
X186999523Y-87320476D01*
X186904285Y-87368095D01*
G04 #@! TO.C,J2*
X198548666Y-85685380D02*
X198548666Y-86399666D01*
X198501047Y-86542523D01*
X198405809Y-86637761D01*
X198262952Y-86685380D01*
X198167714Y-86685380D01*
X198977238Y-85780619D02*
X199024857Y-85733000D01*
X199120095Y-85685380D01*
X199358190Y-85685380D01*
X199453428Y-85733000D01*
X199501047Y-85780619D01*
X199548666Y-85875857D01*
X199548666Y-85971095D01*
X199501047Y-86113952D01*
X198929619Y-86685380D01*
X199548666Y-86685380D01*
G04 #@! TD*
M02*
