M48
;DRILL file {KiCad 5.0.0} date Thu Oct 11 21:07:25 2018
;FORMAT={-:-/ absolute / inch / decimal}
FMAT,2
INCH,TZ
T1C0.0157
T2C0.0394
T3C0.0472
%
G90
G05
M72
T1
X7.425Y-3.65
X7.45Y-3.425
X7.475Y-3.65
X7.5Y-3.475
X7.525Y-3.625
X7.6Y-3.4
X7.625Y-3.15
X7.65Y-3.275
X7.65Y-3.325
X7.675Y-3.15
X7.675Y-3.45
X7.7Y-3.275
X7.7Y-3.325
X7.75Y-3.15
X7.775Y-3.4
X7.8Y-3.175
X7.875Y-3.55
X7.875Y-3.6
T2
X7.325Y-3.175
X7.425Y-3.175
X7.525Y-3.175
X7.95Y-3.2
X7.95Y-3.3
X7.95Y-3.4
X7.95Y-3.5
X7.95Y-3.6
X7.2Y-3.2
X7.2Y-3.3
X7.2Y-3.4
X7.2Y-3.5
X7.2Y-3.6
T3
X7.625Y-3.55
X7.7628Y-3.55
T0
M30
